<svg xmlns="http://www.w3.org/2000/svg" viewBox="0 0 180 120" width="180" height="120">
  <defs>
    <linearGradient id="bgGrad" x1="0%" y1="0%" x2="100%" y2="100%">
      <stop offset="0%" style="stop-color:#1E88E5;stop-opacity:1" />
      <stop offset="100%" style="stop-color:#1565C0;stop-opacity:1" />
    </linearGradient>
    <linearGradient id="accentGrad" x1="0%" y1="0%" x2="100%" y2="100%">
      <stop offset="0%" style="stop-color:#FF6B6B;stop-opacity:1" />
      <stop offset="100%" style="stop-color:#FF5252;stop-opacity:1" />
    </linearGradient>
  </defs>
  
  <!-- Background -->
  <rect width="180" height="120" fill="url(#bgGrad)"/>
  <rect width="180" height="120" fill="#0A1929" opacity="0.2"/>
  
  <!-- Compact logo -->
  <g transform="translate(25, 25)">
    <circle cx="35" cy="35" r="32" fill="url(#bgGrad)" stroke="#1565C0" stroke-width="2"/>
    <circle cx="35" cy="35" r="26" fill="#0A1929" stroke="#1E88E5" stroke-width="1"/>
    <!-- X -->
    <path d="M 20 24 L 35 35 L 50 24" stroke="url(#accentGrad)" stroke-width="5" stroke-linecap="round" fill="none"/>
    <path d="M 20 46 L 35 35 L 50 46" stroke="url(#accentGrad)" stroke-width="5" stroke-linecap="round" fill="none"/>
    <circle cx="35" cy="35" r="3" fill="#00E676"/>
    <!-- Markers -->
    <rect x="33" y="8" width="4" height="6" fill="#00E676" rx="2"/>
    <rect x="57" y="33" width="6" height="4" fill="#00E676" rx="2"/>
    <rect x="33" y="57" width="4" height="6" fill="#00E676" rx="2"/>
    <rect x="8" y="33" width="6" height="4" fill="#00E676" rx="2"/>
  </g>
  
  <!-- Text -->
  <text x="90" y="50" font-family="Arial, sans-serif" font-size="20" font-weight="bold" fill="white">
    CROSSWATCH
  </text>
  <text x="90" y="72" font-family="Arial, sans-serif" font-size="11" fill="#00E676">
    Workout Timer
  </text>
  <text x="90" y="90" font-family="Arial, sans-serif" font-size="9" fill="white" opacity="0.8">
    HIIT • CrossFit
  </text>
</svg>
